<svg width="24" height="25" viewBox="0 0 24 25" fill="none" xmlns="http://www.w3.org/2000/svg">
  <circle cx="12" cy="12.5" r="12" fill="#F1EEE9" />
  <path
    d="M19.3959 4.92119C19.3934 5.07332 19.3897 5.22545 19.3798 5.37759C19.2911 6.77466 18.7586 8.14023 17.8727 9.2397C17.533 9.67368 17.1177 10.0416 16.7271 10.4301C14.372 12.7339 12.0156 15.0359 9.66049 17.3403C8.98104 17.9961 8.59173 18.9205 8.59049 19.8533C7.41137 19.8539 6.23227 19.8545 5.05377 19.8526C5.05625 19.7205 5.05935 19.589 5.06493 19.4575C5.15358 17.7943 5.87952 16.173 7.0698 14.982C9.64065 12.4672 12.2134 9.95371 14.7842 7.43835C15.4662 6.78193 15.8567 5.8558 15.8586 4.92119C17.0377 4.92058 18.2168 4.91937 19.3959 4.92119Z"
    fill="#091321" />
  <path
    d="M19.2041 18.2335C19.3324 18.7638 19.3944 19.3087 19.3969 19.8536C18.2178 19.856 17.038 19.8506 15.8589 19.856C15.8546 19.1517 15.6407 18.448 15.2328 17.8662C14.7598 17.1764 14.0308 16.6667 13.2174 16.4339C14.1089 15.5654 14.996 14.6932 15.8881 13.8253C17.5408 14.7781 18.7689 16.4054 19.2041 18.2335Z"
    fill="#091321" />
  <path
    d="M11.2327 8.33989C10.3418 9.20905 9.45407 10.0806 8.56199 10.9492C7.10328 10.1049 5.96881 8.74052 5.42947 7.16828C5.17902 6.4458 5.05503 5.68332 5.05255 4.92083C6.23228 4.92023 7.4114 4.92083 8.59113 4.92023C8.59298 5.72393 8.87816 6.52338 9.39704 7.14767C9.86448 7.71741 10.516 8.13563 11.2327 8.33989Z"
    fill="#091321" />
  <path
    d="M10.4556 4.92023C10.4527 5.17253 10.5061 5.42517 10.6226 5.65578C10.976 6.43403 11.9648 6.85041 12.7862 6.56192C13.5022 6.34547 13.9963 5.64045 13.9979 4.92023H10.4556Z"
    fill="#091321" />
  <path
    d="M13.9979 19.8534C13.999 19.6939 13.9762 19.5338 13.9268 19.3782C13.8641 19.1624 13.7581 18.9594 13.6162 18.7836C13.1004 18.1139 12.0651 17.9217 11.333 18.3581C10.7865 18.6548 10.4616 19.2533 10.4555 19.8534H13.9979Z"
    fill="#091321" />
</svg>
  