<svg width="40" height="41" viewBox="0 0 40 41" fill="none" xmlns="http://www.w3.org/2000/svg">
  <path
    d="M29.9984 37.8176C39.5626 32.2956 42.8395 20.0659 37.3176 10.5017C31.7956 0.937408 19.5659 -2.33954 10.0017 3.18239C0.437408 8.70434 -2.83954 20.934 2.68239 30.4984C8.20434 40.0626 20.434 43.3395 29.9984 37.8176Z"
    fill="#F7931A" />
  <path
    d="M26.5425 13.8646C25.5726 11.3998 23.1397 11.1779 20.3082 11.7275L19.2997 8.21118L17.1607 8.82557L18.1419 12.2495C17.5791 12.4098 17.0085 12.5863 16.439 12.7622L15.4521 9.31562L13.3125 9.92902L14.3204 13.4441C13.8595 13.586 13.4066 13.7264 12.963 13.8527L12.9595 13.8417L10.0073 14.6875L10.663 16.973C10.663 16.973 12.2353 16.4894 12.2174 16.5257C13.0844 16.2777 13.5101 16.7001 13.7174 17.1116L14.8665 21.1166C14.926 21.0996 15.0044 21.0804 15.097 21.0657L14.8707 21.1315L16.4797 26.7429C16.5191 27.026 16.4836 27.507 15.8776 27.6821C15.9127 27.6979 14.3226 28.1282 14.3226 28.1282L14.63 30.8052L17.4159 30.0064C17.9339 29.859 18.4464 29.7217 18.947 29.5814L19.9677 33.1367L22.1056 32.5229L21.0974 29.0066C21.6875 28.8491 22.257 28.6906 22.8117 28.5319L23.8149 32.034L25.9539 31.4195L24.9369 27.8707C28.4764 26.6325 30.7342 25.0042 30.0781 21.5357C29.5509 18.743 27.9228 17.8951 25.7397 17.9907C26.8002 17.0032 27.2561 15.6677 26.5425 13.8646ZM25.7279 22.327C26.4927 24.9839 21.8545 25.9862 20.4041 26.4036L19.0546 21.6916C20.5062 21.2765 24.9345 19.5554 25.7279 22.327ZM22.8269 15.9651C23.5202 18.3832 19.644 19.1881 18.4367 19.5344L17.2117 15.2629C18.4189 14.9166 22.1037 13.4429 22.8269 15.9651Z"
    fill="white" />
</svg>
  