<svg width="40" height="41" viewBox="0 0 40 41" fill="none" xmlns="http://www.w3.org/2000/svg">
  <path
    d="M40 20.5C40 31.546 31.046 40.5 20 40.5C8.9544 40.5 0 31.546 0 20.5C0 9.4542 8.9544 0.5 20 0.5C31.046 0.5 40 9.4542 40 20.5Z"
    fill="#1BA27A" />
  <path d="M29.3832 10.5838H10.4453V15.1558H17.6282V21.8758H22.2002V15.1558H29.3832V10.5838Z"
    fill="white" />
  <path
    d="M19.9543 22.5937C14.0123 22.5937 9.19491 21.6533 9.19491 20.4931C9.19491 19.3331 14.0121 18.3925 19.9543 18.3925C25.8963 18.3925 30.7135 19.3331 30.7135 20.4931C30.7135 21.6533 25.8963 22.5937 19.9543 22.5937ZM32.0353 20.8433C32.0353 19.3473 26.6265 18.1347 19.9543 18.1347C13.2823 18.1347 7.87311 19.3473 7.87311 20.8433C7.87311 22.1607 12.0673 23.2583 17.6251 23.5015V33.1483H22.1967V23.5053C27.7973 23.2697 32.0353 22.1675 32.0353 20.8433Z"
    fill="white" />
</svg>
  