<svg width="16" height="17" viewBox="0 0 16 17" fill="none" xmlns="http://www.w3.org/2000/svg">
  <path
    d="M7.99996 7.88408C8.32457 7.88408 8.58772 8.14723 8.58772 8.47184V12.3902C8.58772 12.7148 8.32457 12.978 7.99996 12.978C7.67536 12.978 7.41221 12.7148 7.41221 12.3902V8.47184C7.41221 8.14723 7.67536 7.88408 7.99996 7.88408Z"
    fill="currentColor" />
  <path
    d="M7.99996 6.51265C8.43278 6.51265 8.78364 6.16179 8.78364 5.72898C8.78364 5.29617 8.43278 4.94531 7.99996 4.94531C7.56715 4.94531 7.21629 5.29617 7.21629 5.72898C7.21629 6.16179 7.56715 6.51265 7.99996 6.51265Z"
    fill="currentColor" />
  <path fill-rule="evenodd" clip-rule="evenodd"
    d="M1.14282 8.86367C1.14282 5.07658 4.21287 2.00653 7.99996 2.00653C11.7871 2.00653 14.8571 5.07658 14.8571 8.86367C14.8571 12.6508 11.7871 15.7208 7.99996 15.7208C4.21287 15.7208 1.14282 12.6508 1.14282 8.86367ZM7.99996 3.18204C4.86209 3.18204 2.31833 5.72579 2.31833 8.86367C2.31833 12.0016 4.86209 14.5453 7.99996 14.5453C11.1378 14.5453 13.6816 12.0016 13.6816 8.86367C13.6816 5.72579 11.1378 3.18204 7.99996 3.18204Z"
    fill="currentColor" />
</svg>
  