<svg width="25" height="24" viewBox="0 0 25 24" fill="none" xmlns="http://www.w3.org/2000/svg">
  <circle cx="12.1641" cy="12" r="12" fill="#F1EEE9"/>
  <path d="M19.5609 4.42137C19.5584 4.5735 19.5547 4.72564 19.5448 4.87777C19.4561 6.27484 18.9236 7.64041 18.0377 8.73988C17.698 9.17386 17.2826 9.54177 16.8921 9.93029C14.537 12.2341 12.1806 14.5361 9.82547 16.8405C9.14602 17.4963 8.75671 18.4206 8.75547 19.3534C7.57635 19.354 6.39724 19.3546 5.21875 19.3528C5.22123 19.2207 5.22433 19.0892 5.22991 18.9576C5.31856 17.2945 6.0445 15.6732 7.23477 14.4822C9.80563 11.9674 12.3784 9.45389 14.9492 6.93853C15.6311 6.28212 16.0217 5.35599 16.0236 4.42137C17.2027 4.42076 18.3818 4.41955 19.5609 4.42137Z" fill="#080000"/>
  <path d="M19.3675 17.7334C19.4959 18.2638 19.5579 18.8087 19.5603 19.3535C18.3812 19.356 17.2015 19.3505 16.0224 19.356C16.0181 18.6517 15.8042 17.948 15.3963 17.3661C14.9232 16.6764 14.1942 16.1666 13.3809 15.9339C14.2723 15.0653 15.1594 14.1931 16.0515 13.3252C17.7043 14.278 18.9323 15.9054 19.3675 17.7334Z" fill="#080000"/>
  <path d="M11.3969 7.84008C10.5061 8.70923 9.61831 9.5808 8.72623 10.4494C7.26753 9.60506 6.13306 8.2407 5.59372 6.66846C5.34326 5.94599 5.21928 5.1835 5.2168 4.42102C6.39653 4.42041 7.57565 4.42102 8.75538 4.42041C8.75723 5.22411 9.0424 6.02356 9.56129 6.64785C10.0287 7.21759 10.6803 7.63582 11.3969 7.84008Z" fill="#080000"/>
  <path d="M10.6193 4.42041C10.6164 4.67271 10.6697 4.92535 10.7863 5.15596C11.1396 5.93421 12.1284 6.3506 12.9498 6.0621C13.6658 5.84565 14.1599 5.14063 14.1615 4.42041H10.6193Z" fill="#080000"/>
  <path d="M14.1616 19.3538C14.1626 19.1943 14.1399 19.0342 14.0904 18.8786C14.0278 18.6628 13.9218 18.4598 13.7798 18.284C13.264 17.6142 12.2287 17.4221 11.4966 17.8585C10.9502 18.1552 10.6252 18.7537 10.6191 19.3538H14.1616Z" fill="#080000"/>
  </svg>
  