<svg width="24" height="25" viewBox="0 0 24 25" fill="none" xmlns="http://www.w3.org/2000/svg">
  <g clip-path="url(#clip0_2263_1418)">
    <path fill-rule="evenodd" clip-rule="evenodd"
      d="M12 0.5C18.6279 0.5 24 5.87212 24 12.5C24 19.1279 18.6279 24.5 12 24.5C5.37212 24.5 0 19.1279 0 12.5C0 5.87212 5.37212 0.5 12 0.5Z"
      fill="#F0B90B" />
    <path
      d="M6.59529 12.4995L6.60394 15.6726L9.30009 17.2591V19.1168L5.02605 16.6101V11.5716L6.59529 12.4995ZM6.59529 9.32641V11.1755L5.02509 10.2466V8.39757L6.59529 7.46872L8.17317 8.39757L6.59529 9.32641ZM10.4261 8.39757L11.9963 7.46872L13.5741 8.39757L11.9963 9.32641L10.4261 8.39757Z"
      fill="white" />
    <path
      d="M7.72977 15.0149V13.1572L9.29996 14.0861V15.9351L7.72977 15.0149ZM10.4259 17.9245L11.9961 18.8534L13.574 17.9245V19.7736L11.9961 20.7024L10.4259 19.7736V17.9245ZM15.8259 8.39757L17.3961 7.46872L18.974 8.39757V10.2466L17.3961 11.1755V9.32641L15.8259 8.39757ZM17.3961 15.6726L17.4047 12.4995L18.9749 11.5707V16.6091L14.7009 19.1159V17.2582L17.3961 15.6726Z"
      fill="white" />
    <path d="M16.2701 15.015L14.7 15.9352V14.0862L16.2701 13.1573V15.015Z" fill="white" />
    <path
      d="M16.2701 9.98462L16.2788 11.8423L13.5749 13.4288V16.6096L12.0047 17.5298L10.4345 16.6096V13.4288L7.73073 11.8423V9.98462L9.30765 9.05577L11.9951 10.65L14.699 9.05577L16.2769 9.98462H16.2701ZM7.72977 6.8125L11.9961 4.29712L16.2701 6.8125L14.6999 7.74135L11.9961 6.14712L9.29996 7.74135L7.72977 6.8125Z"
      fill="white" />
  </g>
  <defs>
    <clipPath id="clip0_2263_1418">
      <rect width="24" height="24" fill="white" transform="translate(0 0.5)" />
    </clipPath>
  </defs>
</svg>
  