<svg viewBox="0 0 1024 1024" version="1.1"
  xmlns="http://www.w3.org/2000/svg"
  width="24" height="24">
  <path
    d="M512 0Q294 5 149.5 149.5T0 512q5 218 149.5 362.5T512 1024q218-5 362.5-149.5T1024 512q-5-218-149.5-362.5T512 0z m130 709q-45 35-123 35-87 0-135-40t-48-109v-4h55q2 49 35 75t93 26q55 0 83.5-19t28.5-56q0-31-18.5-46.5T537 542l-77-19q-58-13-83-38t-25-68q0-63 43-100t117-37q74 0 118 37t47 102h-55q-4-41-33-64t-78.5-23q-49.5 0-75.5 19.5T409 409q0 25 17.5 38t69.5 25l77 18q62 15 88.5 43.5T688 614q0 60-46 95z"
    fill="#c9adeb"></path>
</svg>